# xmcd
#
# Track frame offsets:
#	150
#	18674
#	36736
#	54125
#	68512
#	86982
#	111370
#	130620
#	151238
#	167187
#	190512
#	205666
#	220565
#	240018
#	264343
#
# Disc length: 3838 seconds
#
# Revision: 1
# Processed by: cddbd v1.5.2PL0 Copyright (c) Steve Scherf et al.
# Submitted via: EasyCDDAExtractor 5.1.0
#
DISCID=be0efc0f
DTITLE=Philippe Ménard - alzhamour
DYEAR=2003
DGENRE=Blues
TTITLE0=Mauser Nature Son
TTITLE1=Don't You Talk So Fast
TTITLE2=Fall In Love
TTITLE3=Come Back
TTITLE4=Your Game Is Over
TTITLE5=Ex-Stasi Girl
TTITLE6=Alzhamour
TTITLE7=The Red Boogie
TTITLE8=Number 6
TTITLE9=She Can't Dance
TTITLE10=Ride On Little Pony
TTITLE11=Pierre
TTITLE12=Big Bill Blues
TTITLE13=Race The Breeze 
TTITLE14=Madison Blues
EXTD=
EXTT0=
EXTT1=
EXTT2=
EXTT3=
EXTT4=
EXTT5=
EXTT6=
EXTT7=
EXTT8=
EXTT9=
EXTT10=
EXTT11=
EXTT12=
EXTT13=
EXTT14=
PLAYORDER=
